<?xml version="1.0" encoding="UTF-8" standalone="no"?>
<!DOCTYPE svg PUBLIC "-//W3C//DTD SVG 1.1//EN" "http://www.w3.org/Graphics/SVG/1.1/DTD/svg11.dtd">
<svg width="100%" height="100%" viewBox="0 0 4167 4167" version="1.1" xmlns="http://www.w3.org/2000/svg" xmlns:xlink="http://www.w3.org/1999/xlink" xml:space="preserve" xmlns:serif="http://www.serif.com/" style="fill-rule:evenodd;clip-rule:evenodd;stroke-linejoin:round;stroke-miterlimit:2;">
    <g transform="matrix(1,0,0,1,-14062.5,-18750)">
        <g id="Page-12" serif:id="Page 12" transform="matrix(4.16667,0,0,4.16667,14062.5,18750)">
            <rect x="0" y="0" width="1000" height="1000" style="fill:none;"/>
            <g id="Layer-1" serif:id="Layer 1">
                <g transform="matrix(1,0,0,1,252.819,449.485)">
                    <path d="M0,101.031L-130.642,101.031L-130.642,-117.835L0,-117.835C73.413,-117.835 124.601,-76.765 124.601,-8.08C124.601,59.962 72.745,101.031 0,101.031M0.684,-151.5L-162.96,-151.5C-165.663,-151.5 -168.333,-148.798 -168.333,-146.126L-168.333,247.155C-168.333,249.859 -165.663,252.531 -162.96,252.531L-136.015,252.531C-133.312,252.531 -130.642,249.859 -130.642,247.155L-130.642,134.697L0.684,134.697C92.934,134.697 162.292,81.494 162.292,-8.08C162.292,-97.621 93.602,-151.5 0.684,-151.5" style="fill:white;fill-rule:nonzero;"/>
                </g>
                <g transform="matrix(1,0,0,1,907.422,702.015)">
                    <path d="M0,-404.031L-59.251,-404.031C-63.95,-404.031 -68.671,-402.005 -72.026,-397.305L-228.929,-177.763L-230.28,-177.763L-387.183,-397.305C-390.538,-402.005 -395.274,-404.031 -399.965,-404.031L-459.231,-404.031C-463.285,-404.031 -467.338,-399.978 -467.338,-395.954L-467.338,-8.08C-467.338,-4.023 -463.285,0 -459.231,0L-383.82,0C-379.797,0 -375.744,-4.023 -375.744,-8.08L-375.744,-255.204L-373.702,-255.204C-373.702,-255.204 -365.633,-234.993 -349.481,-212.107L-229.62,-44.448L-110.418,-212.107C-93.583,-234.993 -85.507,-255.204 -85.507,-255.204L-83.488,-255.204L-83.488,-8.08C-83.488,-4.023 -79.473,0 -75.396,0L0,0C4.053,0 8.091,-4.023 8.091,-8.08L8.091,-395.954C8.091,-399.978 4.053,-404.031 0,-404.031" style="fill:white;fill-rule:nonzero;"/>
                </g>
            </g>
        </g>
    </g>
</svg>
